<svg version="1.1" xmlns="http://www.w3.org/2000/svg" xmlns:xlink="http://www.w3.org/1999/xlink" x="0px" y="0px"
	 viewBox="0 0 627 627" enable-background="new 0 0 627 627" xml:space="preserve">
<g id="hs">
	<g id="nw" transform="translate(0,0) scale(1,1)">
		<path fill="#00A0E9" d="M49.5,0C22.1,0.3,0,22.6,0,50h49.5V0z"/>
	</g>
	<g id="n" transform="translate(0,0) scale(1,1)">
		<path fill="#00A0E9" d="M577,50V0H50c-0.2,0-0.3,0-0.5,0v50H577z"/>
	</g>
	<g id="c" transform="translate(0,0) scale(1,1)">
		<rect x="49.5" y="50" fill="#00A0E9" width="527.5" height="527"/>
	</g>
	<g id="ne" transform="translate(0,0) scale(1,1)">
		<path fill="#00A0E9" d="M627,50c0-27.6-22.4-50-50-50v50H627z"/>
	</g>
	<g id="s" transform="translate(0,0) scale(1,1)">
		<path fill="#00A0E9" d="M49.5,577v50c0.2,0,0.3,0,0.5,0h527v-50H49.5z"/>
	</g>
	<g id="w" transform="translate(0,0) scale(1,1)">
		<rect y="50" fill="#00A0E9" width="49.5" height="527"/>
	</g>
	<g id="se" transform="translate(0,0) scale(1,1)">
		<path fill="#00A0E9" d="M577,627c27.6,0,50-22.4,50-50h-50V627z"/>
	</g>
	<g id="e" transform="translate(0,0) scale(1,1)">
		<rect x="577" y="50" fill="#00A0E9" width="50" height="527"/>
	</g>
	<g id="sw" transform="translate(0,0) scale(1,1)">
		<path fill="#00A0E9" d="M0,577c0,27.4,22.1,49.7,49.5,50v-50H0z"/>
	</g>
</g>
</svg>
